# xmcd
#
# Track frame offsets: 
#        150
#        11385
#        27742
#        45560
#        59575
#        79031
#        96428
#        114917
#        135861
#        152675
#
# Disc length: 2287 seconds
#
# Revision: 5
# Processed by: cddbd v1.5.2PL0 Copyright (c) Steve Scherf et al.
# Submitted via: ExactAudioCopy v0.95a5
#
DISCID=7508ed0a
DTITLE=张学友 - Life Is Like A Dream[才狼上传]
DYEAR=2004
DGENRE=
TTITLE0=勇敢的故事
TTITLE1=想劈酒
TTITLE2=燥狂
TTITLE3=Life Is Like A Dream 
TTITLE4=慢条斯理
TTITLE5=她
TTITLE6=给朋友
TTITLE7=宁愿做错
TTITLE8=讲您知
TTITLE9=瑶瑶
EXTD=YEAR: 2004
EXTT0=
EXTT1=
EXTT2=
EXTT3=
EXTT4=
EXTT5=
EXTT6=
EXTT7=
EXTT8=
EXTT9=
PLAYORDER=
